:SAMPLES-PER-SECOND 30
:FULLY-SPECIFIED
:DEGREES
336
root  -37.7668 39.3338 -12.2893 1.16304 70.6284 7.52757
RightUpLeg  -19.1928 -6.37474 -3.52757
RightLeg  16.3864 -2.30937 -0.912535
RightFoot  -10.779 -0.0888411 3.20631
RightToes  2.21189e-009 0 -3.6325e-017
Spine  9.77642 -2.92661 -6.50225
Spine1  9.59177 -4.81802 4.07457
HEad  -17.1586 14.6784 -5.63111
LeftShoulder1  0.122841 3.15135 -28.721
LeftArm  -7.90845 0.780428 -43.3435
LeftForeArm  67.7773 -79.0092 -87.6723
LeftHand  0.0093574 3.57214 -2.10954
RightShoulder  -0.645705 -5.47394 26.0731
RightArm  -16.5054 -23.2947 27.5229
RightForeArm  107.622 68.9342 147.083
RightHand  -0.150724 1.37525 -2.66693
LeftUpLeg  12.7222 5.50407 -7.35262
LeftLeg  9.33845 -7.96578 -1.58635
LeftFoot  -17.7125 0.321899 3.8718
LeftToes  -3.01956e-010 3.07132e-011 1.04116e-011
337
root  -36.3709 39.0458 -12.0589 2.79128 73.2564 9.76109
RightUpLeg  -19.2063 -6.4323 -2.89819
RightLeg  8.54665 -3.05441 -0.182362
RightFoot  -9.91049 -0.123083 4.33071
RightToes  2.21189e-009 0 -3.6325e-017
Spine  9.60095 -2.98718 -6.45888
Spine1  10.428 -4.8195 3.91496
HEad  -18.1194 12.9848 -5.31056
LeftShoulder1  0.0538124 3.35018 -28.864
LeftArm  -7.9368 -0.324216 -43.3242
LeftForeArm  66.8153 -78.9844 -87.2012
LeftHand  0.0074657 3.7889 -2.16918
RightShoulder  -0.669887 -5.54653 26.1079
RightArm  -17.4287 -22.984 28.38
RightForeArm  106.759 67.9535 148.592
RightHand  -0.244145 2.14597 -3.94563
LeftUpLeg  15.9672 5.74234 -7.44004
LeftLeg  9.05058 -10.63 -1.70831
LeftFoot  -18.9045 0.456769 5.17549
LeftToes  -3.01956e-010 3.07132e-011 1.04116e-011
338
root  -34.8828 38.695 -11.7591 4.48601 75.1555 11.6167
RightUpLeg  -19.5279 -5.20984 -2.3261
RightLeg  3.14532 -4.78688 0.689254
RightFoot  -8.5492 -0.19948 5.8419
RightToes  2.21189e-009 0 -3.6325e-017
Spine  9.18111 -2.84857 -6.30155
Spine1  10.6139 -4.60623 3.87063
HEad  -18.1709 11.4598 -4.81738
LeftShoulder1  0.0459569 3.37242 -28.8291
LeftArm  -8.19696 -0.641155 -43.3938
LeftForeArm  67.0017 -78.9836 -87.4678
LeftHand  0.00642806 3.89722 -2.2053
RightShoulder  -0.67936 -5.57047 26.189
RightArm  -18.8008 -22.959 28.8344
RightForeArm  110.015 67.1178 150.131
RightHand  -0.165921 1.51866 -2.94657
LeftUpLeg  18.5415 6.34957 -6.89519
LeftLeg  9.71538 -13.0404 -2.26868
LeftFoot  -20.2829 0.625836 6.44256
LeftToes  -3.01956e-010 3.07132e-011 1.04116e-011
339
root  -33.2579 38.3322 -11.5211 7.79387 77.4065 14.7897
RightUpLeg  -20.5385 -5.27468 -1.84923
RightLeg  2.81199 -4.54112 1.26263
RightFoot  -7.30777 -0.256545 5.87011
RightToes  2.21189e-009 0 -3.6325e-017
Spine  7.85706 -3.13081 -5.67112
Spine1  11.6203 -4.80005 3.72697
HEad  -17.3689 9.7063 -4.8542
LeftShoulder1  0.081598 3.27098 -28.9252
LeftArm  -8.80079 -0.42654 -43.5358
LeftForeArm  67.5524 -78.9794 -88.2349
LeftHand  0.00302725 4.05678 -1.82117
RightShoulder  -0.71685 -5.67466 26.3627
RightArm  -19.3474 -22.8095 29.3545
RightForeArm  111.145 66.1322 151.574
RightHand  -0.166693 1.8092 -2.85452
LeftUpLeg  21.0508 6.46951 -6.55276
LeftLeg  10.2222 -15.3207 -2.51796
LeftFoot  -21.1077 0.751835 7.30658
LeftToes  -3.01956e-010 3.07132e-011 1.04116e-011
340
root  -31.4936 37.9312 -11.2947 13.6452 80.1711 19.9199
RightUpLeg  -22.1294 -6.72648 -1.24667
RightLeg  7.21254 -2.76021 1.26934
RightFoot  -7.84803 -0.258462 5.79597
RightToes  2.21189e-009 0 -3.6325e-017
Spine  5.83712 -3.93453 -5.29013
Spine1  12.6313 -5.65556 3.97428
HEad  -17.0261 8.55641 -5.35774
LeftShoulder1  0.0437205 3.38034 -29.2182
LeftArm  -9.4181 0.458822 -43.1886
LeftForeArm  70.1775 -78.9692 -91.1964
LeftHand  0.00684804 3.8959 -2.23445
RightShoulder  -0.709813 -5.65658 26.3062
RightArm  -19.6829 -22.7026 29.5255
RightForeArm  112.26 65.3033 152.705
RightHand  -0.161033 0.895759 -3.06845
LeftUpLeg  22.3322 5.71742 -6.64201
LeftLeg  12.308 -17.0086 -2.79628
LeftFoot  -21.8552 0.838134 7.67784
LeftToes  -3.01956e-010 3.07132e-011 1.04116e-011
341
root  -29.7568 37.5726 -10.8938 10.0627 80.9926 16.4702
RightUpLeg  -22.067 -5.85133 1.55761
RightLeg  12.1271 -1.83627 0.131454
RightFoot  -5.41932 -0.00160062 2.69063
RightToes  2.21189e-009 0 -3.6325e-017
Spine  6.75401 -3.3791 -4.05536
Spine1  11.3286 -5.21165 4.70918
HEad  -16.9328 7.46826 -5.84699
LeftShoulder1  -0.00762605 3.52508 -29.2485
LeftArm  -9.72131 1.6907 -42.8204
LeftForeArm  73.0307 -78.9368 -94.1944
LeftHand  0.00946284 3.81446 -2.52603
RightShoulder  -0.746439 -5.76309 26.3935
RightArm  -19.4619 -23.5202 28.9377
RightForeArm  113.262 64.3044 153.944
RightHand  -0.192572 1.04688 -3.59935
LeftUpLeg  23.9667 4.81195 -5.30422
LeftLeg  15.7437 -17.1625 -4.31246
LeftFoot  -22.2174 0.823878 7.21334
LeftToes  -3.01956e-010 3.07132e-011 1.04116e-011
342
root  -27.9979 37.5897 -10.6516 2.37209 83.0857 7.99821
RightUpLeg  -23.1178 -3.62665 3.22528
RightLeg  15.7934 -2.05518 -0.221407
RightFoot  4.63547 1.07191 -8.0421
RightToes  2.21189e-009 0 -3.6325e-017
Spine  5.57384 -3.83627 0.274139
Spine1  12.0219 -5.26963 4.03728
HEad  -16.4593 6.24937 -6.10831
LeftShoulder1  -0.0603848 3.67282 -29.6386
LeftArm  -9.22229 2.66218 -41.7389
LeftForeArm  75.3232 -78.8627 -97.031
LeftHand  0.00610816 3.97634 -2.25273
RightShoulder  -0.738229 -5.74433 26.284
RightArm  -19.0636 -25.304 28.5406
RightForeArm  115.135 63.4576 155.011
RightHand  -0.123123 0.808651 -2.36572
LeftUpLeg  24.3531 2.49051 -3.28783
LeftLeg  18.9374 -17.682 -6.28357
LeftFoot  -19.4461 0.452755 4.87958
LeftToes  -3.01956e-010 3.07132e-011 1.04116e-011
343
root  -26.2476 37.3714 -10.4184 -9.84039 82.6601 -4.59856
RightUpLeg  -24.2827 -1.74327 4.80539
RightLeg  21.9761 -1.65891 -1.00617
RightFoot  6.92454 1.28655 -7.70819
RightToes  2.21189e-009 0 -3.6325e-017
Spine  5.7538 -3.63151 5.50677
Spine1  11.0077 -3.70091 1.10211
HEad  -15.8076 5.12279 -6.22066
LeftShoulder1  -0.0576765 3.66533 -29.4993
LeftArm  -9.19914 4.1668 -41.4073
LeftForeArm  77.7121 -78.8071 -99.2588
LeftHand  0.00626225 4.16621 -2.74735
RightShoulder  -0.820223 -5.93488 27.1422
RightArm  -18.4234 -25.6256 27.5781
RightForeArm  115.945 63.6677 154.844
RightHand  -0.0661816 -0.614373 -1.56605
LeftUpLeg  22.0566 3.69797 -0.00774199
LeftLeg  28.5282 -19.8799 -11.0667
LeftFoot  -15.0717 0.133222 0.601485
LeftToes  -3.01956e-010 3.07132e-011 1.04116e-011
344
root  -24.7869 37.2238 -10.1854 -22.6167 82.474 -17.9189
RightUpLeg  -24.9054 -2.58756 6.62505
RightLeg  26.9371 -1.21366 -0.916582
RightFoot  3.78691 1.1379 -8.35449
RightToes  2.21189e-009 0 -3.6325e-017
Spine  6.33119 -3.78222 8.02738
Spine1  11.0018 -3.50418 1.79635
HEad  -16.1914 5.34871 -7.14816
LeftShoulder1  -0.0185773 3.55619 -29.2792
LeftArm  -10.4529 6.39578 -42.0708
LeftForeArm  82.0752 -78.7009 -102.932
LeftHand  0.00596265 4.0647 -2.43197
RightShoulder  -0.747531 -5.72405 26.9905
RightArm  -17.4871 -23.6862 27.6135
RightForeArm  114.515 65.0177 153.237
RightHand  -0.082315 -0.554348 -1.92537
LeftUpLeg  16.3146 3.09812 2.75025
LeftLeg  41.3194 -18.8007 -16.531
LeftFoot  -6.65315 0.47838 -8.70035
LeftToes  -3.01956e-010 3.07132e-011 1.04116e-011
345
root  -23.5459 37.1416 -9.88107 -44.6449 83.4143 -40.3031
RightUpLeg  -24.5231 -4.62051 8.68862
RightLeg  29.9415 -1.53192 -1.20442
RightFoot  0.509567 0.914729 -8.74619
RightToes  2.21189e-009 0 -3.6325e-017
Spine  7.68013 -4.43466 8.7121
Spine1  10.7594 -4.57244 5.36469
HEad  -16.5226 5.48889 -7.46148
LeftShoulder1  -0.0165722 3.54961 -29.9934
LeftArm  -10.9065 6.75963 -41.6057
LeftForeArm  82.6622 -78.6849 -103.379
LeftHand  0.0094282 3.89532 -2.64988
RightShoulder  -0.605341 -5.35061 26.0698
RightArm  -16.5901 -21.8935 27.5109
RightForeArm  113.614 65.84 152.167
RightHand  -0.0848119 -0.0221131 -1.844
LeftUpLeg  8.29749 -0.66552 4.98724
LeftLeg  54.0956 -14.2011 -19.5484
LeftFoot  3.66753 2.2461 -17.6111
LeftToes  -3.01956e-010 3.07132e-011 1.04116e-011
346
root  -22.2559 37.2757 -9.60791 -58.9354 83.4589 -54.521
RightUpLeg  -22.6128 -6.72614 9.81235
RightLeg  31.0301 -1.14744 -1.01106
RightFoot  -2.10212 0.70454 -8.87017
RightToes  2.21189e-009 0 -3.6325e-017
Spine  8.68688 -4.43528 10.5804
Spine1  10.4813 -4.14293 5.52754
HEad  -16.3592 4.19698 -6.48967
LeftShoulder1  0.0542647 3.3517 -29.5732
LeftArm  -10.403 5.65211 -41.7597
LeftForeArm  78.7648 -78.8192 -99.7166
LeftHand  0.00335723 4.16876 -2.1521
RightShoulder  -0.661476 -5.52024 26.1102
RightArm  -16.5984 -21.3246 27.517
RightForeArm  113.203 66.0225 151.895
RightHand  -0.0794805 -0.893754 -1.926
LeftUpLeg  1.43108 -3.74013 5.82902
LeftLeg  62.4903 -9.38009 -18.3281
LeftFoot  8.03979 2.98904 -17.5965
LeftToes  -3.01956e-010 3.07132e-011 1.04116e-011
347
root  -20.8094 37.656 -9.30261 -55.8009 83.0928 -50.9424
RightUpLeg  -18.8917 -7.60393 9.88743
RightLeg  29.9548 -0.234816 -0.408359
RightFoot  -4.0399 0.547553 -8.97918
RightToes  2.21189e-009 0 -3.6325e-017
Spine  9.47615 -3.87707 11.2799
Spine1  9.95828 -3.1431 4.43559
HEad  -15.8913 3.39367 -4.96983
LeftShoulder1  0.0750767 3.29053 -29.043
LeftArm  -10.688 5.21904 -41.8349
LeftForeArm  77.4522 -78.8827 -98.0631
LeftHand  0.00461458 4.09845 -2.2191
RightShoulder  -0.666959 -5.52259 26.3492
RightArm  -16.3931 -20.7946 28.2179
RightForeArm  111.95 66.4977 151.163
RightHand  -0.120051 -0.473268 -2.81149
LeftUpLeg  -3.99593 -5.07621 6.06091
LeftLeg  67.2151 -6.18794 -15.1884
LeftFoot  4.18957 1.76941 -13.1761
LeftToes  -3.01956e-010 3.07132e-011 1.04116e-011
348
root  -19.4185 38.0111 -8.97433 -50.4205 83.0201 -45.3688
RightUpLeg  -15.3871 -7.62396 9.54112
RightLeg  28.5056 0.0637299 -0.189718
RightFoot  -5.70296 0.398943 -8.85108
RightToes  2.21189e-009 0 -3.6325e-017
Spine  10.0067 -3.38209 10.8992
Spine1  9.38409 -2.56946 4.19861
HEad  -15.7055 2.89182 -4.39283
LeftShoulder1  0.0708793 3.30282 -29.1467
LeftArm  -11.3497 5.26298 -41.355
LeftForeArm  78.6217 -78.8498 -99.2153
LeftHand  0.00742486 3.82789 -2.05875
RightShoulder  -0.589836 -5.29432 26.2027
RightArm  -16.049 -19.972 29.1164
RightForeArm  111.785 66.9827 150.489
RightHand  -0.114363 -0.785228 -2.77219
LeftUpLeg  -9.27494 -6.50762 6.01619
LeftLeg  68.7538 -4.0753 -10.81
LeftFoot  3.112 1.15191 -9.22547
LeftToes  -3.01956e-010 3.07132e-011 1.04116e-011
